<?xml version="1.0" encoding="utf-8"?>
<!-- Generator: Adobe Illustrator 16.0.0, SVG Export Plug-In . SVG Version: 6.00 Build 0)  -->
<!DOCTYPE svg PUBLIC "-//W3C//DTD SVG 1.1//EN" "http://www.w3.org/Graphics/SVG/1.1/DTD/svg11.dtd">
<svg version="1.1" id="Layer_1" xmlns="http://www.w3.org/2000/svg" xmlns:xlink="http://www.w3.org/1999/xlink" x="0px" y="0px"
	 width="612px" height="792px" viewBox="0 0 612 792" enable-background="new 0 0 612 792" xml:space="preserve">
<path fill="#FF002B" d="M0,409.6l7.862,6.801c7.82,6.8,23.588,20.399,39.313,6.8c15.598-13.601,31.45-54.4,47.175-56.653
	c15.512-2.422,31.025,34.127,46.75,47.6c15.81,13.728,31.45,4.378,47.175,4.505c15.725-0.127,31.45,9.223,47.175,18.147
	c15.64,8.925,31.45,18.275,47.175,9.053c15.513-9.053,31.025-36.253,46.75-54.4c15.853-17.978,31.45-27.328,47.175-27.2
	c15.768-0.127,31.45,9.223,47.175,24.948c15.641,15.725,31.45,38.675,47.176,43.053c15.555,4.547,31.449-9.053,46.75-15.853
	c15.895-6.801,31.449-6.801,47.175-18.147c15.81-11.178,31.45-34.128,39.524-45.306L612,341.6V464h-7.862c-7.82,0-23.588,0-39.313,0
	c-15.598,0-31.45,0-47.175,0c-15.513,0-31.025,0-46.75,0c-15.811,0-31.45,0-47.176,0c-15.725,0-31.449,0-47.175,0
	c-15.64,0-31.45,0-47.175,0c-15.513,0-31.025,0-46.75,0c-15.853,0-31.45,0-47.175,0c-15.768,0-31.45,0-47.175,0
	c-15.64,0-31.45,0-47.175,0c-15.555,0-31.45,0-46.75,0c-15.895,0-31.45,0-47.175,0c-15.81,0-31.45,0-39.525,0H0V409.6z"/>
</svg>
